<mxfile host="app.diagrams.net" modified="2020-09-22T14:00:30.564Z" agent="5.0 (Windows NT 10.0; Win64; x64) AppleWebKit/537.36 (KHTML, like Gecko) Chrome/85.0.4183.102 Safari/537.36" etag="deBclwO9GQthUW0Z8NNQ" version="13.7.3" type="github" pages="6">
  <diagram id="jljpZZ17GOOZlHrEQDAC" name="Page-1">
    <mxGraphModel dx="1180" dy="713" grid="1" gridSize="10" guides="1" tooltips="1" connect="1" arrows="1" fold="1" page="1" pageScale="1" pageWidth="827" pageHeight="1169" math="0" shadow="0">
      <root>
        <mxCell id="0" />
        <mxCell id="1" parent="0" />
        <mxCell id="iWlhe-wKnRGJ6vJ2QB7t-1" value="leader" style="rounded=1;whiteSpace=wrap;html=1;fontSize=16;" parent="1" vertex="1">
          <mxGeometry x="340" width="120" height="60" as="geometry" />
        </mxCell>
        <mxCell id="iWlhe-wKnRGJ6vJ2QB7t-11" style="edgeStyle=orthogonalEdgeStyle;rounded=0;orthogonalLoop=1;jettySize=auto;html=1;entryX=0.5;entryY=1;entryDx=0;entryDy=0;" parent="1" source="iWlhe-wKnRGJ6vJ2QB7t-2" target="iWlhe-wKnRGJ6vJ2QB7t-1" edge="1">
          <mxGeometry relative="1" as="geometry">
            <Array as="points">
              <mxPoint x="120" y="80" />
              <mxPoint x="400" y="80" />
            </Array>
          </mxGeometry>
        </mxCell>
        <mxCell id="iWlhe-wKnRGJ6vJ2QB7t-2" value="" style="rounded=1;whiteSpace=wrap;html=1;" parent="1" vertex="1">
          <mxGeometry y="120" width="240" height="120" as="geometry" />
        </mxCell>
        <mxCell id="iWlhe-wKnRGJ6vJ2QB7t-12" style="edgeStyle=orthogonalEdgeStyle;rounded=0;orthogonalLoop=1;jettySize=auto;html=1;entryX=0.5;entryY=1;entryDx=0;entryDy=0;" parent="1" source="iWlhe-wKnRGJ6vJ2QB7t-5" target="iWlhe-wKnRGJ6vJ2QB7t-1" edge="1">
          <mxGeometry relative="1" as="geometry" />
        </mxCell>
        <mxCell id="iWlhe-wKnRGJ6vJ2QB7t-5" value="" style="rounded=1;whiteSpace=wrap;html=1;" parent="1" vertex="1">
          <mxGeometry x="280" y="120" width="240" height="120" as="geometry" />
        </mxCell>
        <mxCell id="iWlhe-wKnRGJ6vJ2QB7t-13" style="edgeStyle=orthogonalEdgeStyle;rounded=0;orthogonalLoop=1;jettySize=auto;html=1;entryX=0.5;entryY=1;entryDx=0;entryDy=0;" parent="1" source="iWlhe-wKnRGJ6vJ2QB7t-6" target="iWlhe-wKnRGJ6vJ2QB7t-1" edge="1">
          <mxGeometry relative="1" as="geometry">
            <Array as="points">
              <mxPoint x="720" y="80" />
              <mxPoint x="400" y="80" />
            </Array>
          </mxGeometry>
        </mxCell>
        <mxCell id="iWlhe-wKnRGJ6vJ2QB7t-6" value="" style="rounded=1;whiteSpace=wrap;html=1;" parent="1" vertex="1">
          <mxGeometry x="600" y="120" width="240" height="120" as="geometry" />
        </mxCell>
        <mxCell id="iWlhe-wKnRGJ6vJ2QB7t-9" value="……" style="text;html=1;strokeColor=none;fillColor=none;align=center;verticalAlign=middle;whiteSpace=wrap;rounded=0;fontStyle=1;strokeWidth=2;" parent="1" vertex="1">
          <mxGeometry x="540" y="170" width="40" height="20" as="geometry" />
        </mxCell>
        <mxCell id="iWlhe-wKnRGJ6vJ2QB7t-15" value="&lt;h1&gt;权限中台&lt;/h1&gt;&lt;p&gt;&lt;font style=&quot;font-size: 16px&quot;&gt;项目owner、项目成员&lt;/font&gt;&lt;/p&gt;" style="text;html=1;strokeColor=none;fillColor=none;spacing=5;spacingTop=-20;whiteSpace=wrap;overflow=hidden;rounded=0;" parent="1" vertex="1">
          <mxGeometry x="20" y="120" width="190" height="120" as="geometry" />
        </mxCell>
        <mxCell id="iWlhe-wKnRGJ6vJ2QB7t-17" value="&lt;h1&gt;字节打车&lt;/h1&gt;&lt;p&gt;&lt;font style=&quot;font-size: 16px&quot;&gt;项目owner、项目成员&lt;/font&gt;&lt;/p&gt;" style="text;html=1;strokeColor=none;fillColor=none;spacing=5;spacingTop=-20;whiteSpace=wrap;overflow=hidden;rounded=0;" parent="1" vertex="1">
          <mxGeometry x="305" y="120" width="190" height="120" as="geometry" />
        </mxCell>
        <mxCell id="iWlhe-wKnRGJ6vJ2QB7t-18" value="&lt;h1&gt;企业信息服务&lt;/h1&gt;&lt;p&gt;&lt;font style=&quot;font-size: 16px&quot;&gt;项目owner、项目成员&lt;/font&gt;&lt;/p&gt;" style="text;html=1;strokeColor=none;fillColor=none;spacing=5;spacingTop=-20;whiteSpace=wrap;overflow=hidden;rounded=0;" parent="1" vertex="1">
          <mxGeometry x="625" y="120" width="190" height="120" as="geometry" />
        </mxCell>
      </root>
    </mxGraphModel>
  </diagram>
  <diagram id="iBIwvjGhuclKRVrSZ2DQ" name="Page-2">
    <mxGraphModel dx="1180" dy="713" grid="1" gridSize="10" guides="1" tooltips="1" connect="1" arrows="1" fold="1" page="1" pageScale="1" pageWidth="827" pageHeight="1169" math="0" shadow="0">
      <root>
        <mxCell id="GfeXyFGS9tUYXaYKwjkP-0" />
        <mxCell id="GfeXyFGS9tUYXaYKwjkP-1" parent="GfeXyFGS9tUYXaYKwjkP-0" />
        <mxCell id="GfeXyFGS9tUYXaYKwjkP-3" value="前端&lt;br&gt;browser, miniprogramme" style="rounded=1;whiteSpace=wrap;html=1;fillColor=#ffe6cc;strokeColor=#d79b00;" vertex="1" parent="GfeXyFGS9tUYXaYKwjkP-1">
          <mxGeometry x="80" y="120" width="120" height="60" as="geometry" />
        </mxCell>
        <mxCell id="GfeXyFGS9tUYXaYKwjkP-4" value="客户端&lt;br&gt;Android, IOS, Win, Mac, Linux" style="rounded=1;whiteSpace=wrap;html=1;fillColor=#ffe6cc;strokeColor=#d79b00;" vertex="1" parent="GfeXyFGS9tUYXaYKwjkP-1">
          <mxGeometry x="80" y="200" width="120" height="60" as="geometry" />
        </mxCell>
        <mxCell id="GfeXyFGS9tUYXaYKwjkP-5" value="后台" style="rounded=1;whiteSpace=wrap;html=1;fillColor=#dae8fc;strokeColor=#6c8ebf;" vertex="1" parent="GfeXyFGS9tUYXaYKwjkP-1">
          <mxGeometry x="360" y="160" width="120" height="60" as="geometry" />
        </mxCell>
        <mxCell id="GfeXyFGS9tUYXaYKwjkP-6" value="" style="shape=flexArrow;endArrow=classic;startArrow=classic;html=1;fillColor=#ffe6cc;strokeColor=#d79b00;" edge="1" parent="GfeXyFGS9tUYXaYKwjkP-1">
          <mxGeometry width="50" height="50" relative="1" as="geometry">
            <mxPoint x="210" y="190" as="sourcePoint" />
            <mxPoint x="350" y="190" as="targetPoint" />
          </mxGeometry>
        </mxCell>
        <mxCell id="GfeXyFGS9tUYXaYKwjkP-7" value="数据交互" style="text;html=1;strokeColor=none;fillColor=none;align=center;verticalAlign=middle;whiteSpace=wrap;rounded=0;" vertex="1" parent="GfeXyFGS9tUYXaYKwjkP-1">
          <mxGeometry x="250" y="160" width="60" height="20" as="geometry" />
        </mxCell>
        <mxCell id="GfeXyFGS9tUYXaYKwjkP-9" value="MySQL" style="rounded=1;whiteSpace=wrap;html=1;fillColor=#d5e8d4;strokeColor=#82b366;" vertex="1" parent="GfeXyFGS9tUYXaYKwjkP-1">
          <mxGeometry x="600" y="120" width="120" height="60" as="geometry" />
        </mxCell>
        <mxCell id="GfeXyFGS9tUYXaYKwjkP-10" value="Redis" style="rounded=1;whiteSpace=wrap;html=1;fillColor=#d5e8d4;strokeColor=#82b366;" vertex="1" parent="GfeXyFGS9tUYXaYKwjkP-1">
          <mxGeometry x="600" y="200" width="120" height="60" as="geometry" />
        </mxCell>
        <mxCell id="GfeXyFGS9tUYXaYKwjkP-11" value="" style="shape=flexArrow;endArrow=classic;startArrow=classic;html=1;fillColor=#d5e8d4;strokeColor=#82b366;" edge="1" parent="GfeXyFGS9tUYXaYKwjkP-1">
          <mxGeometry width="50" height="50" relative="1" as="geometry">
            <mxPoint x="490" y="190" as="sourcePoint" />
            <mxPoint x="590" y="190" as="targetPoint" />
          </mxGeometry>
        </mxCell>
        <mxCell id="GfeXyFGS9tUYXaYKwjkP-12" value="数据交互" style="text;html=1;strokeColor=none;fillColor=none;align=center;verticalAlign=middle;whiteSpace=wrap;rounded=0;" vertex="1" parent="GfeXyFGS9tUYXaYKwjkP-1">
          <mxGeometry x="510" y="160" width="60" height="20" as="geometry" />
        </mxCell>
        <mxCell id="GfeXyFGS9tUYXaYKwjkP-14" value="" style="rounded=0;whiteSpace=wrap;html=1;fillColor=none;dashed=1;" vertex="1" parent="GfeXyFGS9tUYXaYKwjkP-1">
          <mxGeometry x="350" y="80" width="380" height="220" as="geometry" />
        </mxCell>
        <mxCell id="GfeXyFGS9tUYXaYKwjkP-15" value="" style="rounded=0;whiteSpace=wrap;html=1;dashed=1;fillColor=none;" vertex="1" parent="GfeXyFGS9tUYXaYKwjkP-1">
          <mxGeometry x="40" y="80" width="200" height="220" as="geometry" />
        </mxCell>
      </root>
    </mxGraphModel>
  </diagram>
  <diagram id="rGpnpcf-ryjLp_m5ugE6" name="Page-3">
    <mxGraphModel dx="1180" dy="669" grid="1" gridSize="10" guides="1" tooltips="1" connect="1" arrows="1" fold="1" page="1" pageScale="1" pageWidth="827" pageHeight="1169" math="0" shadow="0">
      <root>
        <mxCell id="kKakYcDdU7clPYUg6o1R-0" />
        <mxCell id="kKakYcDdU7clPYUg6o1R-1" parent="kKakYcDdU7clPYUg6o1R-0" />
        <mxCell id="kKakYcDdU7clPYUg6o1R-26" value="" style="shape=flexArrow;endArrow=classic;startArrow=classic;html=1;fillColor=#dae8fc;strokeColor=#6c8ebf;" edge="1" parent="kKakYcDdU7clPYUg6o1R-1">
          <mxGeometry width="50" height="50" relative="1" as="geometry">
            <mxPoint x="510" y="190" as="sourcePoint" />
            <mxPoint x="600" y="260" as="targetPoint" />
          </mxGeometry>
        </mxCell>
        <mxCell id="kKakYcDdU7clPYUg6o1R-24" value="" style="shape=flexArrow;endArrow=classic;startArrow=classic;html=1;fillColor=#dae8fc;strokeColor=#6c8ebf;" edge="1" parent="kKakYcDdU7clPYUg6o1R-1">
          <mxGeometry width="50" height="50" relative="1" as="geometry">
            <mxPoint x="510" y="190" as="sourcePoint" />
            <mxPoint x="600" y="120" as="targetPoint" />
          </mxGeometry>
        </mxCell>
        <mxCell id="kKakYcDdU7clPYUg6o1R-11" value="" style="rounded=0;whiteSpace=wrap;html=1;fillColor=none;dashed=1;" vertex="1" parent="kKakYcDdU7clPYUg6o1R-1">
          <mxGeometry x="360" y="80" width="627" height="220" as="geometry" />
        </mxCell>
        <mxCell id="kKakYcDdU7clPYUg6o1R-2" value="前端&lt;br&gt;browser, miniprogramme" style="rounded=1;whiteSpace=wrap;html=1;fillColor=#ffe6cc;strokeColor=#d79b00;" vertex="1" parent="kKakYcDdU7clPYUg6o1R-1">
          <mxGeometry x="80" y="120" width="120" height="60" as="geometry" />
        </mxCell>
        <mxCell id="kKakYcDdU7clPYUg6o1R-3" value="客户端&lt;br&gt;Android, IOS, Win, Mac, Linux" style="rounded=1;whiteSpace=wrap;html=1;fillColor=#ffe6cc;strokeColor=#d79b00;" vertex="1" parent="kKakYcDdU7clPYUg6o1R-1">
          <mxGeometry x="80" y="200" width="120" height="60" as="geometry" />
        </mxCell>
        <mxCell id="kKakYcDdU7clPYUg6o1R-4" value="后台" style="rounded=1;whiteSpace=wrap;html=1;fillColor=#dae8fc;strokeColor=#6c8ebf;" vertex="1" parent="kKakYcDdU7clPYUg6o1R-1">
          <mxGeometry x="617" y="160" width="120" height="60" as="geometry" />
        </mxCell>
        <mxCell id="kKakYcDdU7clPYUg6o1R-5" value="" style="shape=flexArrow;endArrow=classic;startArrow=classic;html=1;fillColor=#ffe6cc;strokeColor=#d79b00;" edge="1" parent="kKakYcDdU7clPYUg6o1R-1">
          <mxGeometry width="50" height="50" relative="1" as="geometry">
            <mxPoint x="210" y="190" as="sourcePoint" />
            <mxPoint x="350" y="190" as="targetPoint" />
          </mxGeometry>
        </mxCell>
        <mxCell id="kKakYcDdU7clPYUg6o1R-6" value="数据交互" style="text;html=1;strokeColor=none;fillColor=none;align=center;verticalAlign=middle;whiteSpace=wrap;rounded=0;" vertex="1" parent="kKakYcDdU7clPYUg6o1R-1">
          <mxGeometry x="250" y="160" width="60" height="20" as="geometry" />
        </mxCell>
        <mxCell id="kKakYcDdU7clPYUg6o1R-7" value="MySQL" style="rounded=1;whiteSpace=wrap;html=1;fillColor=#d5e8d4;strokeColor=#82b366;" vertex="1" parent="kKakYcDdU7clPYUg6o1R-1">
          <mxGeometry x="857" y="120" width="120" height="60" as="geometry" />
        </mxCell>
        <mxCell id="kKakYcDdU7clPYUg6o1R-8" value="Redis" style="rounded=1;whiteSpace=wrap;html=1;fillColor=#d5e8d4;strokeColor=#82b366;" vertex="1" parent="kKakYcDdU7clPYUg6o1R-1">
          <mxGeometry x="857" y="200" width="120" height="60" as="geometry" />
        </mxCell>
        <mxCell id="kKakYcDdU7clPYUg6o1R-9" value="" style="shape=flexArrow;endArrow=classic;startArrow=classic;html=1;fillColor=#d5e8d4;strokeColor=#82b366;" edge="1" parent="kKakYcDdU7clPYUg6o1R-1">
          <mxGeometry width="50" height="50" relative="1" as="geometry">
            <mxPoint x="747" y="190" as="sourcePoint" />
            <mxPoint x="847" y="190" as="targetPoint" />
          </mxGeometry>
        </mxCell>
        <mxCell id="kKakYcDdU7clPYUg6o1R-10" value="数据交互" style="text;html=1;strokeColor=none;fillColor=none;align=center;verticalAlign=middle;whiteSpace=wrap;rounded=0;" vertex="1" parent="kKakYcDdU7clPYUg6o1R-1">
          <mxGeometry x="767" y="160" width="60" height="20" as="geometry" />
        </mxCell>
        <mxCell id="kKakYcDdU7clPYUg6o1R-12" value="" style="rounded=0;whiteSpace=wrap;html=1;dashed=1;fillColor=none;" vertex="1" parent="kKakYcDdU7clPYUg6o1R-1">
          <mxGeometry x="40" y="80" width="200" height="220" as="geometry" />
        </mxCell>
        <mxCell id="kKakYcDdU7clPYUg6o1R-13" value="中台" style="rounded=1;whiteSpace=wrap;html=1;fillColor=#f8cecc;strokeColor=#b85450;" vertex="1" parent="kKakYcDdU7clPYUg6o1R-1">
          <mxGeometry x="370" y="160" width="120" height="60" as="geometry" />
        </mxCell>
        <mxCell id="kKakYcDdU7clPYUg6o1R-16" value="" style="shape=flexArrow;endArrow=classic;startArrow=classic;html=1;fillColor=#dae8fc;strokeColor=#6c8ebf;" edge="1" parent="kKakYcDdU7clPYUg6o1R-1">
          <mxGeometry width="50" height="50" relative="1" as="geometry">
            <mxPoint x="500" y="190" as="sourcePoint" />
            <mxPoint x="600" y="190" as="targetPoint" />
          </mxGeometry>
        </mxCell>
        <mxCell id="kKakYcDdU7clPYUg6o1R-18" value="后台" style="rounded=1;whiteSpace=wrap;html=1;fillColor=#dae8fc;strokeColor=#6c8ebf;" vertex="1" parent="kKakYcDdU7clPYUg6o1R-1">
          <mxGeometry x="617" y="90" width="120" height="60" as="geometry" />
        </mxCell>
        <mxCell id="kKakYcDdU7clPYUg6o1R-19" value="后台" style="rounded=1;whiteSpace=wrap;html=1;fillColor=#dae8fc;strokeColor=#6c8ebf;" vertex="1" parent="kKakYcDdU7clPYUg6o1R-1">
          <mxGeometry x="617" y="230" width="120" height="60" as="geometry" />
        </mxCell>
        <mxCell id="kKakYcDdU7clPYUg6o1R-25" value="数据交互" style="text;html=1;strokeColor=none;fillColor=none;align=center;verticalAlign=middle;whiteSpace=wrap;rounded=0;" vertex="1" parent="kKakYcDdU7clPYUg6o1R-1">
          <mxGeometry x="520" y="120" width="60" height="20" as="geometry" />
        </mxCell>
      </root>
    </mxGraphModel>
  </diagram>
  <diagram id="CXZSlhqj-IloLCBZ29UI" name="Page-4">
    <mxGraphModel dx="580" dy="704" grid="1" gridSize="10" guides="1" tooltips="1" connect="1" arrows="1" fold="1" page="1" pageScale="1" pageWidth="827" pageHeight="1169" math="0" shadow="0">
      <root>
        <mxCell id="17f4C8f46glFnxj5VB3C-0" />
        <mxCell id="17f4C8f46glFnxj5VB3C-1" parent="17f4C8f46glFnxj5VB3C-0" />
        <mxCell id="17f4C8f46glFnxj5VB3C-2" value="个人权限" style="rounded=1;whiteSpace=wrap;html=1;" vertex="1" parent="17f4C8f46glFnxj5VB3C-1">
          <mxGeometry x="120" y="80" width="120" height="60" as="geometry" />
        </mxCell>
        <mxCell id="17f4C8f46glFnxj5VB3C-3" value="组权限" style="rounded=1;whiteSpace=wrap;html=1;" vertex="1" parent="17f4C8f46glFnxj5VB3C-1">
          <mxGeometry x="120" y="160" width="120" height="60" as="geometry" />
        </mxCell>
        <mxCell id="17f4C8f46glFnxj5VB3C-4" value="角色权限" style="rounded=1;whiteSpace=wrap;html=1;" vertex="1" parent="17f4C8f46glFnxj5VB3C-1">
          <mxGeometry x="260" y="80" width="120" height="60" as="geometry" />
        </mxCell>
        <mxCell id="17f4C8f46glFnxj5VB3C-5" value="部门权限" style="rounded=1;whiteSpace=wrap;html=1;" vertex="1" parent="17f4C8f46glFnxj5VB3C-1">
          <mxGeometry x="260" y="160" width="120" height="60" as="geometry" />
        </mxCell>
        <mxCell id="17f4C8f46glFnxj5VB3C-6" value="部门信息" style="rounded=1;whiteSpace=wrap;html=1;fillColor=#ffffff;" vertex="1" parent="17f4C8f46glFnxj5VB3C-1">
          <mxGeometry x="480" y="80" width="120" height="60" as="geometry" />
        </mxCell>
        <mxCell id="17f4C8f46glFnxj5VB3C-7" value="员工信息" style="rounded=1;whiteSpace=wrap;html=1;" vertex="1" parent="17f4C8f46glFnxj5VB3C-1">
          <mxGeometry x="480" y="160" width="120" height="60" as="geometry" />
        </mxCell>
      </root>
    </mxGraphModel>
  </diagram>
  <diagram id="jhoqEYk5OCe2jd_XT_YX" name="Page-5">
    <mxGraphModel dx="1180" dy="1882" grid="1" gridSize="10" guides="1" tooltips="1" connect="1" arrows="1" fold="1" page="1" pageScale="1" pageWidth="827" pageHeight="1169" math="0" shadow="0">
      <root>
        <mxCell id="6ddqfwm3C6ZbqciRBH4k-0" />
        <mxCell id="6ddqfwm3C6ZbqciRBH4k-1" parent="6ddqfwm3C6ZbqciRBH4k-0" />
        <mxCell id="6ddqfwm3C6ZbqciRBH4k-18" value="" style="rounded=0;whiteSpace=wrap;html=1;fillColor=#ffffff;" vertex="1" parent="6ddqfwm3C6ZbqciRBH4k-1">
          <mxGeometry x="870" y="-20" width="260" height="510" as="geometry" />
        </mxCell>
        <mxCell id="6ddqfwm3C6ZbqciRBH4k-17" value="" style="rounded=0;whiteSpace=wrap;html=1;fillColor=#ffffff;" vertex="1" parent="6ddqfwm3C6ZbqciRBH4k-1">
          <mxGeometry x="590" y="-20" width="260" height="510" as="geometry" />
        </mxCell>
        <mxCell id="6ddqfwm3C6ZbqciRBH4k-16" value="" style="rounded=0;whiteSpace=wrap;html=1;fillColor=#ffffff;" vertex="1" parent="6ddqfwm3C6ZbqciRBH4k-1">
          <mxGeometry x="310" y="-20" width="260" height="510" as="geometry" />
        </mxCell>
        <mxCell id="6ddqfwm3C6ZbqciRBH4k-15" value="" style="rounded=0;whiteSpace=wrap;html=1;fillColor=#ffffff;" vertex="1" parent="6ddqfwm3C6ZbqciRBH4k-1">
          <mxGeometry x="30" y="-20" width="260" height="510" as="geometry" />
        </mxCell>
        <mxCell id="6ddqfwm3C6ZbqciRBH4k-2" value="&lt;b&gt;PR / FAQ&lt;br&gt;&lt;/b&gt;Press Rease(新闻稿)&lt;br&gt;Frequently Asked Questions(常见问题)" style="rounded=1;whiteSpace=wrap;html=1;fillColor=#dae8fc;strokeColor=#6c8ebf;opacity=60;" vertex="1" parent="6ddqfwm3C6ZbqciRBH4k-1">
          <mxGeometry x="40" y="40" width="240" height="80" as="geometry" />
        </mxCell>
        <mxCell id="6ddqfwm3C6ZbqciRBH4k-3" value="&lt;b&gt;Business Requirements&lt;/b&gt;&lt;br&gt;商业清单" style="rounded=1;whiteSpace=wrap;html=1;fillColor=#dae8fc;strokeColor=#6c8ebf;opacity=60;" vertex="1" parent="6ddqfwm3C6ZbqciRBH4k-1">
          <mxGeometry x="40" y="130" width="240" height="80" as="geometry" />
        </mxCell>
        <mxCell id="6ddqfwm3C6ZbqciRBH4k-4" value="&lt;b&gt;Technical Requirements&lt;br&gt;&lt;/b&gt;技术实现要求" style="rounded=1;whiteSpace=wrap;html=1;fillColor=#dae8fc;strokeColor=#6c8ebf;opacity=60;" vertex="1" parent="6ddqfwm3C6ZbqciRBH4k-1">
          <mxGeometry x="40" y="220" width="240" height="80" as="geometry" />
        </mxCell>
        <mxCell id="6ddqfwm3C6ZbqciRBH4k-5" value="&lt;b&gt;Architecture Design &amp;amp; Review&lt;/b&gt;&lt;br&gt;架构设计和评审" style="rounded=1;whiteSpace=wrap;html=1;fillColor=#dae8fc;strokeColor=#6c8ebf;opacity=60;" vertex="1" parent="6ddqfwm3C6ZbqciRBH4k-1">
          <mxGeometry x="40" y="310" width="240" height="80" as="geometry" />
        </mxCell>
        <mxCell id="6ddqfwm3C6ZbqciRBH4k-6" value="&lt;b&gt;Component Design &amp;amp; Review&lt;/b&gt;&lt;br&gt;组件设计和评审" style="rounded=1;whiteSpace=wrap;html=1;fillColor=#dae8fc;strokeColor=#6c8ebf;opacity=60;" vertex="1" parent="6ddqfwm3C6ZbqciRBH4k-1">
          <mxGeometry x="40" y="400" width="240" height="80" as="geometry" />
        </mxCell>
        <mxCell id="6ddqfwm3C6ZbqciRBH4k-7" value="&lt;b&gt;Implementation&lt;/b&gt;&lt;br&gt;实现" style="rounded=1;whiteSpace=wrap;html=1;fillColor=#d5e8d4;strokeColor=#82b366;opacity=60;" vertex="1" parent="6ddqfwm3C6ZbqciRBH4k-1">
          <mxGeometry x="320" y="40" width="240" height="80" as="geometry" />
        </mxCell>
        <mxCell id="6ddqfwm3C6ZbqciRBH4k-8" value="&lt;b&gt;Security Review&lt;/b&gt;&lt;br&gt;安全评审" style="rounded=1;whiteSpace=wrap;html=1;fillColor=#ffe6cc;strokeColor=#d79b00;opacity=60;" vertex="1" parent="6ddqfwm3C6ZbqciRBH4k-1">
          <mxGeometry x="600" y="40" width="240" height="80" as="geometry" />
        </mxCell>
        <mxCell id="6ddqfwm3C6ZbqciRBH4k-9" value="&lt;b&gt;Test Plan / Tests&lt;/b&gt;&lt;br&gt;测试" style="rounded=1;whiteSpace=wrap;html=1;fillColor=#ffe6cc;strokeColor=#d79b00;opacity=60;" vertex="1" parent="6ddqfwm3C6ZbqciRBH4k-1">
          <mxGeometry x="600" y="130" width="240" height="80" as="geometry" />
        </mxCell>
        <mxCell id="6ddqfwm3C6ZbqciRBH4k-10" value="Operation Review&lt;br&gt;&lt;span style=&quot;font-weight: normal&quot;&gt;运维评审&lt;/span&gt;" style="rounded=1;whiteSpace=wrap;html=1;fillColor=#ffe6cc;fontStyle=1;strokeColor=#d79b00;opacity=60;" vertex="1" parent="6ddqfwm3C6ZbqciRBH4k-1">
          <mxGeometry x="600" y="220" width="240" height="80" as="geometry" />
        </mxCell>
        <mxCell id="6ddqfwm3C6ZbqciRBH4k-11" value="&lt;b&gt;Internal Availability&lt;/b&gt;&lt;br&gt;内部可用" style="rounded=1;whiteSpace=wrap;html=1;fillColor=#ffe6cc;strokeColor=#d79b00;opacity=60;" vertex="1" parent="6ddqfwm3C6ZbqciRBH4k-1">
          <mxGeometry x="600" y="310" width="240" height="80" as="geometry" />
        </mxCell>
        <mxCell id="6ddqfwm3C6ZbqciRBH4k-12" value="&lt;b&gt;General Availability&lt;/b&gt;&lt;br&gt;一般可用" style="rounded=1;whiteSpace=wrap;html=1;fillColor=#ffe6cc;strokeColor=#d79b00;opacity=60;" vertex="1" parent="6ddqfwm3C6ZbqciRBH4k-1">
          <mxGeometry x="600" y="400" width="240" height="80" as="geometry" />
        </mxCell>
        <mxCell id="6ddqfwm3C6ZbqciRBH4k-13" value="&lt;b&gt;Launch&lt;/b&gt;&lt;br&gt;发布" style="rounded=1;whiteSpace=wrap;html=1;fillColor=#f8cecc;strokeColor=#b85450;opacity=60;" vertex="1" parent="6ddqfwm3C6ZbqciRBH4k-1">
          <mxGeometry x="880" y="40" width="240" height="80" as="geometry" />
        </mxCell>
        <mxCell id="6ddqfwm3C6ZbqciRBH4k-14" value="&lt;b&gt;Operations / Maintenance&lt;/b&gt;&lt;br&gt;运维、维护" style="rounded=1;whiteSpace=wrap;html=1;fillColor=#f8cecc;strokeColor=#b85450;opacity=60;" vertex="1" parent="6ddqfwm3C6ZbqciRBH4k-1">
          <mxGeometry x="880" y="130" width="240" height="80" as="geometry" />
        </mxCell>
        <mxCell id="6ddqfwm3C6ZbqciRBH4k-19" value="提出需求" style="rounded=0;whiteSpace=wrap;html=1;fillColor=#dae8fc;strokeColor=#6c8ebf;" vertex="1" parent="6ddqfwm3C6ZbqciRBH4k-1">
          <mxGeometry x="30" y="-20" width="260" height="50" as="geometry" />
        </mxCell>
        <mxCell id="6ddqfwm3C6ZbqciRBH4k-21" value="开发实现" style="rounded=0;whiteSpace=wrap;html=1;fillColor=#d5e8d4;strokeColor=#82b366;" vertex="1" parent="6ddqfwm3C6ZbqciRBH4k-1">
          <mxGeometry x="310" y="-20" width="260" height="50" as="geometry" />
        </mxCell>
        <mxCell id="6ddqfwm3C6ZbqciRBH4k-22" value="上线测试" style="rounded=0;whiteSpace=wrap;html=1;fillColor=#ffe6cc;strokeColor=#d79b00;" vertex="1" parent="6ddqfwm3C6ZbqciRBH4k-1">
          <mxGeometry x="590" y="-20" width="260" height="50" as="geometry" />
        </mxCell>
        <mxCell id="6ddqfwm3C6ZbqciRBH4k-23" value="正式上线" style="rounded=0;whiteSpace=wrap;html=1;fillColor=#f8cecc;strokeColor=#b85450;" vertex="1" parent="6ddqfwm3C6ZbqciRBH4k-1">
          <mxGeometry x="870" y="-20" width="260" height="50" as="geometry" />
        </mxCell>
        <mxCell id="Lyyzm5BawektNEv9wsle-1" value="" style="endArrow=classic;html=1;" edge="1" parent="6ddqfwm3C6ZbqciRBH4k-1">
          <mxGeometry width="50" height="50" relative="1" as="geometry">
            <mxPoint x="40" y="-30" as="sourcePoint" />
            <mxPoint x="1120" y="-30" as="targetPoint" />
          </mxGeometry>
        </mxCell>
      </root>
    </mxGraphModel>
  </diagram>
  <diagram id="0_2w76U1VTWTQ3pxoZSI" name="Page-6">
    <mxGraphModel dx="1180" dy="1882" grid="1" gridSize="10" guides="1" tooltips="1" connect="1" arrows="1" fold="1" page="1" pageScale="1" pageWidth="827" pageHeight="1169" math="0" shadow="0">
      <root>
        <mxCell id="WFrYDsCxNk9RabKUmAbE-0" />
        <mxCell id="WFrYDsCxNk9RabKUmAbE-1" parent="WFrYDsCxNk9RabKUmAbE-0" />
        <mxCell id="WFrYDsCxNk9RabKUmAbE-2" value="" style="rounded=0;whiteSpace=wrap;html=1;fillColor=#ffffff;" vertex="1" parent="WFrYDsCxNk9RabKUmAbE-1">
          <mxGeometry x="870" y="-20" width="260" height="240" as="geometry" />
        </mxCell>
        <mxCell id="WFrYDsCxNk9RabKUmAbE-3" value="" style="rounded=0;whiteSpace=wrap;html=1;fillColor=#ffffff;" vertex="1" parent="WFrYDsCxNk9RabKUmAbE-1">
          <mxGeometry x="590" y="-20" width="260" height="240" as="geometry" />
        </mxCell>
        <mxCell id="WFrYDsCxNk9RabKUmAbE-4" value="" style="rounded=0;whiteSpace=wrap;html=1;fillColor=#ffffff;" vertex="1" parent="WFrYDsCxNk9RabKUmAbE-1">
          <mxGeometry x="310" y="-20" width="260" height="240" as="geometry" />
        </mxCell>
        <mxCell id="WFrYDsCxNk9RabKUmAbE-5" value="" style="rounded=0;whiteSpace=wrap;html=1;fillColor=#ffffff;" vertex="1" parent="WFrYDsCxNk9RabKUmAbE-1">
          <mxGeometry x="30" y="-20" width="260" height="240" as="geometry" />
        </mxCell>
        <mxCell id="WFrYDsCxNk9RabKUmAbE-6" value="&lt;b&gt;产品设计&lt;/b&gt;" style="rounded=1;whiteSpace=wrap;html=1;fillColor=#dae8fc;strokeColor=#6c8ebf;opacity=60;" vertex="1" parent="WFrYDsCxNk9RabKUmAbE-1">
          <mxGeometry x="40" y="40" width="240" height="80" as="geometry" />
        </mxCell>
        <mxCell id="WFrYDsCxNk9RabKUmAbE-7" value="&lt;b&gt;技术方案&lt;/b&gt;" style="rounded=1;whiteSpace=wrap;html=1;fillColor=#dae8fc;strokeColor=#6c8ebf;opacity=60;" vertex="1" parent="WFrYDsCxNk9RabKUmAbE-1">
          <mxGeometry x="40" y="130" width="240" height="80" as="geometry" />
        </mxCell>
        <mxCell id="WFrYDsCxNk9RabKUmAbE-11" value="&lt;b&gt;Implementation&lt;/b&gt;&lt;br&gt;实现" style="rounded=1;whiteSpace=wrap;html=1;fillColor=#d5e8d4;strokeColor=#82b366;opacity=60;" vertex="1" parent="WFrYDsCxNk9RabKUmAbE-1">
          <mxGeometry x="320" y="40" width="240" height="80" as="geometry" />
        </mxCell>
        <mxCell id="WFrYDsCxNk9RabKUmAbE-13" value="&lt;b&gt;Test Plan / Tests&lt;/b&gt;&lt;br&gt;测试" style="rounded=1;whiteSpace=wrap;html=1;fillColor=#ffe6cc;strokeColor=#d79b00;opacity=60;" vertex="1" parent="WFrYDsCxNk9RabKUmAbE-1">
          <mxGeometry x="600" y="40" width="240" height="80" as="geometry" />
        </mxCell>
        <mxCell id="WFrYDsCxNk9RabKUmAbE-17" value="&lt;b&gt;Launch&lt;/b&gt;&lt;br&gt;发布" style="rounded=1;whiteSpace=wrap;html=1;fillColor=#f8cecc;strokeColor=#b85450;opacity=60;" vertex="1" parent="WFrYDsCxNk9RabKUmAbE-1">
          <mxGeometry x="880" y="40" width="240" height="80" as="geometry" />
        </mxCell>
        <mxCell id="WFrYDsCxNk9RabKUmAbE-18" value="&lt;b&gt;Operations / Maintenance&lt;/b&gt;&lt;br&gt;运维、维护" style="rounded=1;whiteSpace=wrap;html=1;fillColor=#f8cecc;strokeColor=#b85450;opacity=60;" vertex="1" parent="WFrYDsCxNk9RabKUmAbE-1">
          <mxGeometry x="880" y="130" width="240" height="80" as="geometry" />
        </mxCell>
        <mxCell id="WFrYDsCxNk9RabKUmAbE-19" value="提出需求" style="rounded=0;whiteSpace=wrap;html=1;fillColor=#dae8fc;strokeColor=#6c8ebf;" vertex="1" parent="WFrYDsCxNk9RabKUmAbE-1">
          <mxGeometry x="30" y="-20" width="260" height="50" as="geometry" />
        </mxCell>
        <mxCell id="WFrYDsCxNk9RabKUmAbE-20" value="开发实现" style="rounded=0;whiteSpace=wrap;html=1;fillColor=#d5e8d4;strokeColor=#82b366;" vertex="1" parent="WFrYDsCxNk9RabKUmAbE-1">
          <mxGeometry x="310" y="-20" width="260" height="50" as="geometry" />
        </mxCell>
        <mxCell id="WFrYDsCxNk9RabKUmAbE-21" value="上线测试" style="rounded=0;whiteSpace=wrap;html=1;fillColor=#ffe6cc;strokeColor=#d79b00;" vertex="1" parent="WFrYDsCxNk9RabKUmAbE-1">
          <mxGeometry x="590" y="-20" width="260" height="50" as="geometry" />
        </mxCell>
        <mxCell id="WFrYDsCxNk9RabKUmAbE-22" value="正式上线" style="rounded=0;whiteSpace=wrap;html=1;fillColor=#f8cecc;strokeColor=#b85450;" vertex="1" parent="WFrYDsCxNk9RabKUmAbE-1">
          <mxGeometry x="870" y="-20" width="260" height="50" as="geometry" />
        </mxCell>
        <mxCell id="ZqcWxpmKyVw-AoERJY-m-0" value="" style="endArrow=classic;html=1;" edge="1" parent="WFrYDsCxNk9RabKUmAbE-1">
          <mxGeometry width="50" height="50" relative="1" as="geometry">
            <mxPoint x="40" y="-30" as="sourcePoint" />
            <mxPoint x="1120" y="-30" as="targetPoint" />
          </mxGeometry>
        </mxCell>
      </root>
    </mxGraphModel>
  </diagram>
</mxfile>
